# AST/ASF file generated using VICON BodyLanguage
# -----------------------------------------------
:version 1.10
:name VICON
:units
  mass 1.0
  length 0.45
  angle deg
:documentation
   .ast/.asf automatically generated from VICON data using
   VICON BodyBuilder and BodyLanguage model FoxedUp or BRILLIANT.MOD
:root
   order TX TY TZ RX RY RZ
   axis XYZ
   position 0 0 0  
   orientation 0 0 0 
:bonedata
  begin
     id 1 
     name lhipjoint
     direction 0.570549 -0.739093 0.358072 
     length 2.41801 
     axis 0 0 0  XYZ
  end
  begin
     id 2 
     name lfemur
     direction 0.34202 -0.939693 0  
     length 7.44434  
     axis 0 0 20  XYZ
    dof rx ry rz
    limits (-160.0 20.0)
           (-70.0 70.0)
           (-60.0 70.0)
  end
  begin
     id 3 
     name ltibia
     direction 0.34202 -0.939693 0   
     length 7.60047   
     axis 0 0 20   XYZ
    dof rx
    limits (-10.0 170.0)
  end
  begin
     id 4 
     name lfoot
     direction 0.0909041 -0.249757 0.964032   
     length 2.03437   
     axis -90 7.62852e-016 20   XYZ
    dof rx rz
    limits (-45.0 90.0)
           (-70.0 20.0)
  end
  begin
     id 5 
     name ltoes
     direction 1.53547e-011 -4.2174e-011 1   
     length 1.02054   
     axis -90 7.62852e-016 20   XYZ
    dof rx
    limits (-90.0 20.0)
  end
  begin
     id 6 
     name rhipjoint
     direction -0.558096 -0.746754 0.361784   
     length 2.3932  
     axis 0 0 0  XYZ 
  end
  begin
     id 7 
     name rfemur
     direction -0.34202 -0.939693 0   
     length 7.3886   
     axis 0 0 -20   XYZ
    dof rx ry rz
    limits (-160.0 20.0)
           (-70.0 70.0)
           (-70.0 60.0)
  end
  begin
     id 8 
     name rtibia
     direction -0.34202 -0.939693 0   
     length 7.4839   
     axis 0 0 -20   XYZ
    dof rx
    limits (-10.0 170.0)
 end
 begin
     id 9 
     name rfoot
     direction -0.114619 -0.314914 0.942174   
     length 2.25127  
     axis -90 -7.62852e-016 -20   XYZ
    dof rx rz
    limits (-45.0 90.0)
           (-20.0 70.0)
  end
  begin
     id 10 
     name rtoes
     direction -1.53518e-011 -4.21881e-011 1   
     length 1.11821   
     axis -90 -7.62852e-016 -20   XYZ
    dof rx
    limits (-90.0 20.0)
  end
  begin
     id 11 
     name lowerback
     direction -0.00902269 0.996426 -0.0839821   
     length 2.25052   
     axis 0 0 0   XYZ
    dof rx ry rz
    limits (-20.0 45.0)
           (-30.0 30.0)
           (-30.0 30.0)
  end
  begin
     id 12 
     name upperback
     direction 0.0370973 0.999169 -0.0168941   
     length 2.24876   
     axis 0 0 0   XYZ
    dof rx ry rz
    limits (-20.0 45.0)
           (-30.0 30.0)
           (-30.0 30.0)
  end
  begin
     id 13 
     name thorax
     direction 0.0402726 0.998931 0.0227027   
     length 2.26408   
     axis 0 0 0   XYZ
    dof rx ry rz
    limits (-20.0 45.0)
           (-30.0 30.0)
           (-30.0 30.0)
  end
  begin
     id 14 
     name lowerneck
     direction -0.0733697 0.98508 0.155675   
     length 1.58204   
     axis 0 0 0   XYZ
    dof rx ry rz
    limits (-20.0 45.0)
           (-30.0 30.0)
           (-30.0 30.0)
  end
  begin
     id 15 
     name upperneck
     direction 0.0426554 0.993501 -0.105526   
     length 1.61222   
     axis 0 0 0   XYZ
    dof rx ry rz
    limits (-20.0 45.0)
           (-30.0 30.0)
           (-30.0 30.0)
  end
  begin
     id 16
     name head
     direction 0.020792 0.998384 -0.0528868  
     length 1.61527  
     axis 0 0 0   XYZ
    dof rx ry rz
    limits (-20.0 45.0)
           (-30.0 30.0)
           (-30.0 30.0)
  end
  begin
     id 17 
     name lclavicle
     direction 0.967109 0.155462 -0.201325  
     length 3.59357  
     axis 0 0 0   XYZ
    dof ry rz
    limits (-20.0 10.0)
           (0.0 20.0)
  end
  begin
     id 18 
     name lhumerus
     direction 1 -4.48968e-011 2.38195e-027   
     length 5.38154   
     axis 180 -30 -90   XYZ
    dof rx ry rz
    limits (-60.0 90.0)
           (-90.0 90.0)
           (-90.0 90.0)
  end
  begin
     id 19
     name lradius
     direction 1 -4.48961e-011 4.85371e-027   
     length 3.33312   
     axis 180 -30 -90   XYZ
    dof rx
    limits (-10.0 170.0)
  end
  begin
     id 20
     name lwrist
     direction 1 -4.48961e-011 4.76515e-027   
     length 1.66656   
     axis -3.27502e-015 90 90   XYZ
    dof ry
    limits (-180.0 0.0)
 end
  begin
     id 21 
     name lhand
     direction 1 -4.48951e-011 9.53074e-027   
     length 0.710789   
     axis -6.08098e-015 90 90   XYZ
    dof rx rz
    limits (-90.0 90.0)
           (-45.0 45.0)
  end
  begin
     id 22 
     name lfingers
     direction 1 -4.48953e-011 1.90613e-026   
     length 0.573057   
     axis -1.21619e-014 90 90   XYZ
    dof rx
    limits (0.0 90.0)
  end
  begin
     id 23
     name lthumb
     direction 0.707107 -6.34973e-011 0.707107   
     length 0.822798   
     axis -90 45 -9.86923e-015   XYZ
    dof rx rz
    limits (-45.0 45.0)
           (-45.0 45.0)
  end
  begin
     id 24 
     name rclavicle
     direction -0.9585 0.265289 -0.104398   
     length 3.42039  
     axis 0 0 0   XYZ 
    dof ry rz
    limits (-10.0 20.0)
           (-20.0 0.0)
  end
  begin
     id 25 
     name rhumerus
     direction -1 -4.48977e-011 2.21478e-027  
     length 5.16954   
     axis 180 30 90   XYZ
    dof rx ry rz
    limits (-90.0 60.0)
           (-90.0 90.0)
           (-90.0 90.0)
  end
  begin
     id 26 
     name rradius
     direction -1 -4.48967e-011 5.63677e-027   
     length 3.38287   
     axis 180 30 90   XYZ
    dof rx
    limits (-10.0 170.0)
  end
  begin
     id 27 
     name rwrist
     direction -1 -4.48967e-011 4.76501e-027   
     length 1.69144   
     axis -3.27502e-015 -90 -90   XYZ
    dof ry
    limits (-180.0 0.0)
  end
  begin
     id 28
     name rhand
     direction -1 -4.48902e-011 9.53292e-027   
     length 0.817967   
     axis -6.08098e-015 -90 -90   XYZ
    dof rx rz
    limits (-90.0 90.0)
           (-45.0 45.0)
  end
  begin
     id 29
     name rfingers
     direction -1 -4.49012e-011 1.90561e-026   
     length 0.659466   
     axis -1.21619e-014 -90 -90   XYZ
    dof rx
    limits (0.0 90.0)
  end
  begin
     id 30
     name rthumb
     direction -0.707107 -6.34944e-011 0.707107   
     length 0.946865   
     axis -90 -45 9.86923e-015   XYZ
    dof rx rz
    limits (-45.0 45.0)
           (-45.0 45.0)
  end
:hierarchy
  begin
    root lhipjoint rhipjoint lowerback
    lhipjoint lfemur
    lfemur ltibia
    ltibia lfoot
    lfoot ltoes
    rhipjoint rfemur
    rfemur rtibia
    rtibia rfoot
    rfoot rtoes
    lowerback upperback
    upperback thorax
    thorax lowerneck lclavicle rclavicle
    lowerneck upperneck
    upperneck head
    lclavicle lhumerus
    lhumerus lradius
    lradius lwrist
    lwrist lhand lthumb
    lhand lfingers
    rclavicle rhumerus
    rhumerus rradius
    rradius rwrist
    rwrist rhand rthumb
    rhand rfingers
  end

#!OML:ASF F:\twosubjects\two\wednesday\Session 1\Justin1.ASF
:FULLY-SPECIFIED
:DEGREES
563
root 8.83699 17.6315 -15.2024 -1.41786 -7.49526 0.060851
lowerback 6.50661 1.28635 -0.872553
upperback -2.32492 1.78061 2.39806
thorax -6.18507 0.963483 2.78569
lowerneck -20.8222 -2.09784 -8.81195
upperneck 19.2955 -1.46479 5.69474
head 9.65408 -0.675437 3.24386
rclavicle 9.83984e-015 -6.36111e-015
rhumerus -10.3666 30.9818 -88.5882
rradius 115.428
rwrist -19.2188
rhand -33.9995 38.7288
rfingers 7.12502
rthumb -7.17905 8.87058
lclavicle 9.83984e-015 -6.36111e-015
lhumerus -7.80503 -21.1262 94.3864
lradius 109.495
lwrist 3.46529
lhand -24.998 32.2563
lfingers 7.12502
lthumb 1.51348 62.2307
rfemur -5.34347 1.25473 16.6557
rtibia 18.2884
rfoot -9.27418 -5.49071
rtoes -3.03822
lfemur -3.77673 0.289342 -14.0448
ltibia 19.3751
lfoot -11.7044 7.36011
ltoes -9.73109
564
root 8.84643 17.6367 -15.1997 -1.34485 -7.05665 0.362216
lowerback 6.33174 1.20076 -1.04324
upperback -2.41554 1.63959 2.18115
thorax -6.17023 0.896716 2.67369
lowerneck -20.9159 -2.22448 -8.88059
upperneck 19.5098 -1.6554 5.8592
head 9.76429 -0.751669 3.29137
rclavicle 4.52235e-015 7.15625e-015
rhumerus -10.9586 32.7593 -90.445
rradius 114.816
rwrist -19.5297
rhand -34.1822 38.3791
rfingers 7.12502
rthumb -7.35541 8.527
lclavicle 4.52235e-015 7.15625e-015
lhumerus -7.7026 -23.6033 95.5
lradius 108.891
lwrist 3.32007
lhand -24.8702 33.583
lfingers 7.12502
lthumb 1.6369 63.5564
rfemur -5.34871 1.2574 16.2678
rtibia 18.252
rfoot -9.34145 -5.87384
rtoes -2.6159
lfemur -3.85052 0.102656 -14.4321
ltibia 19.1173
lfoot -11.5466 7.24014
ltoes -10.9656
565
root 8.85318 17.6392 -15.1916 -1.26557 -6.74753 -0.251422
lowerback 6.15539 1.07404 -0.383821
upperback -2.46344 1.53313 2.28609
thorax -6.09806 0.820268 2.4267
lowerneck -20.4211 -2.11952 -8.8664
upperneck 19.08 -1.58395 6.00978
head 9.5179 -0.700327 3.34217
rclavicle 1.0635e-014 1.82882e-014
rhumerus -11.4516 34.3867 -92.2245
rradius 113.906
rwrist -19.5901
rhand -33.4943 38.8176
rfingers 7.12502
rthumb -6.69144 8.94332
lclavicle 1.0635e-014 1.82882e-014
lhumerus -7.47029 -26.2136 96.5928
lradius 108.323
lwrist 3.23401
lhand -24.5934 35.3706
lfingers 7.12502
lthumb 1.90425 65.3418
rfemur -5.18421 1.48166 16.9521
rtibia 18.1124
rfoot -9.36575 -6.41716
rtoes -2.5707
lfemur -3.806 -0.0212854 -13.7719
ltibia 18.9494
lfoot -11.4225 7.05902
ltoes -11.5149
566
root 8.85834 17.6386 -15.1792 -1.36371 -6.30353 -0.436263
lowerback 6.03814 0.922698 -0.23589
upperback -2.40984 1.34423 2.34362
thorax -5.9633 0.72141 2.42656
lowerneck -20.3826 -2.04623 -8.96843
upperneck 18.9099 -1.49505 6.20728
head 9.44576 -0.641953 3.43798
rclavicle 1.2424e-015 -7.95139e-015
rhumerus -11.8076 36.1272 -93.7731
rradius 113.033
rwrist -20.6304
rhand -31.2028 38.9164
rfingers 7.12502
rthumb -4.47895 8.98374
lclavicle 1.2424e-015 -7.95139e-015
lhumerus -7.11775 -28.7301 97.5117
lradius 107.538
lwrist 3.80939
lhand -24.2884 35.8044
lfingers 7.12502
lthumb 2.19879 65.7728
rfemur -4.73786 1.38819 17.1347
rtibia 17.7338
rfoot -9.23575 -6.7347
rtoes -2.50995
lfemur -3.74282 -0.0909933 -13.5866
ltibia 19
lfoot -11.4247 6.72602
ltoes -12.1661
567
root 8.86488 17.6396 -15.1611 -1.51574 -5.82221 -0.34721
lowerback 5.90444 0.809805 -0.357597
upperback -2.35904 1.18088 2.34594
thorax -5.82843 0.644361 2.51705
lowerneck -20.5076 -2.1269 -9.28683
upperneck 19.1495 -1.56451 6.47055
head 9.56307 -0.66918 3.58064
rclavicle 5.56597e-015 -4.77083e-015
rhumerus -12.3004 38.1226 -95.1993
rradius 112.049
rwrist -21.3936
rhand -29.028 38.5101
rfingers 7.12502
rthumb -2.37879 8.54357
lclavicle 5.56597e-015 -4.77083e-015
lhumerus -7.05349 -31.0351 98.5818
lradius 106.675
lwrist 5.01643
lhand -23.0734 35.4077
lfingers 7.12502
lthumb 3.37224 65.3608
rfemur -4.16095 1.07733 16.965
rtibia 17.1762
rfoot -9.03533 -6.88911
rtoes -2.37284
lfemur -3.72048 -0.136047 -13.728
ltibia 19.2039
lfoot -11.6125 6.36466
ltoes -13.112
568
root 8.87508 17.645 -15.1506 -1.46441 -5.46745 -0.879862
lowerback 5.72577 0.75064 0.190198
upperback -2.37069 1.15216 2.49429
thorax -5.72922 0.612256 2.36804
lowerneck -20.4223 -2.26064 -9.55221
upperneck 19.3099 -1.70382 6.56923
head 9.62026 -0.74595 3.6435
rclavicle -5.46658e-016 -1.27222e-014
rhumerus -12.8745 40.2394 -96.5942
rradius 110.847
rwrist -20.5417
rhand -28.7773 37.761
rfingers 7.12502
rthumb -2.13659 7.79198
lclavicle -5.46658e-016 -1.27222e-014
lhumerus -7.1527 -33.6687 99.6883
lradius 105.98
lwrist 6.13683
lhand -21.5589 35.7822
lfingers 7.12502
lthumb 4.83471 65.707
rfemur -3.85034 1.03989 17.5116
rtibia 16.7246
rfoot -8.88379 -7.26146
rtoes -2.47339
lfemur -3.8263 -0.108873 -13.1688
ltibia 19.3322
lfoot -11.7687 6.01944
ltoes -13.455
569
root 8.88415 17.6514 -15.1478 -1.28927 -5.08919 -1.34742
lowerback 5.51582 0.709106 0.649702
upperback -2.39514 1.13681 2.63348
thorax -5.6284 0.590312 2.25802
lowerneck -20.504 -2.38858 -9.61689
upperneck 19.3192 -1.81832 6.42218
head 9.64886 -0.820042 3.58594
rclavicle -1.34677e-014 5.56597e-015
rhumerus -13.3576 42.1484 -97.8026
rradius 109.805
rwrist -19.8588
rhand -29.0524 38.2009
rfingers 7.12502
rthumb -2.40228 8.23464
lclavicle -1.34677e-014 5.56597e-015
lhumerus -7.14506 -36.4843 100.587
lradius 105.242
lwrist 6.66523
lhand -21.196 37.2165
lfingers 7.12502
lthumb 5.1851 67.1331
rfemur -3.74316 1.09013 18.0048
rtibia 16.357
rfoot -8.74262 -7.68066
rtoes -2.65185
lfemur -4.08979 -0.142391 -12.6776
ltibia 19.4259
lfoot -11.7614 5.68697
ltoes -13.3264
